<svg width="30" height="30" viewBox="0 0 30 30" fill="none" xmlns="http://www.w3.org/2000/svg">
<path d="M2.90005 17.9L17.9 2.9C20.4 0.300001 24.5 0.300001 27.1 2.8C29.7 5.3 29.7 9.5 27.1 12L27 12.1L24.2 15L22.8 13.6L25.7 10.7C27.4 9 27.4 6.1 25.7 4.4C24 2.7 21.1 2.6 19.4 4.3C19.4 4.3 19.4 4.3 19.3 4.4L4.40005 19.3C2.60005 21 2.60005 23.9 4.30005 25.6C6.00005 27.4 8.90005 27.4 10.6 25.7C10.6 25.7 10.6 25.7 10.7001 25.6L18.1 18.2C19.1 17.2 19 15.6 18.1 14.7C17.1 13.8 15.6 13.8 14.6 14.7L10.5 18.8L9.10005 17.4L13.3 13.2C15.1 11.5 17.9 11.6 19.6 13.4C21.2 15.1 21.2 17.8 19.6 19.6L12.1 27.1C9.60005 29.7 5.50005 29.7 2.90005 27.2C0.300049 24.7 0.300049 20.5 2.90005 17.9C2.90005 18 2.90005 17.9 2.90005 17.9Z" fill="#BBBBBB"/>
</svg>
